<?xml version="1.0" encoding="utf-8"?>
<!-- Generator: Adobe Illustrator 16.0.0, SVG Export Plug-In . SVG Version: 6.00 Build 0)  -->
<!DOCTYPE svg PUBLIC "-//W3C//DTD SVG 1.1//EN" "http://www.w3.org/Graphics/SVG/1.1/DTD/svg11.dtd">
<svg version="1.1" id="Layer_1" xmlns="http://www.w3.org/2000/svg" xmlns:xlink="http://www.w3.org/1999/xlink" x="0px" y="0px"
	 width="1000px" height="1000px" viewBox="749.359 539.361 1000 1000" enable-background="new 749.359 539.361 1000 1000"
	 xml:space="preserve">
<g>
	<g>
		<path fill="#971914" d="M1249.738,1454.347c-20.564-100.955-56.823-184.971-100.743-262.836
			c-32.578-57.757-70.317-111.068-105.234-167.076c-11.656-18.698-21.716-38.449-32.917-57.854
			c-22.396-38.799-40.554-83.786-39.4-142.14c1.128-57.016,17.618-102.751,41.396-140.146
			c39.109-61.505,104.617-111.931,192.514-125.183c71.866-10.835,139.244,7.471,187.027,35.41
			c39.045,22.833,69.281,53.33,92.265,89.274c23.99,37.515,40.509,81.836,41.894,139.646c0.709,29.619-4.139,57.047-10.971,79.799
			c-6.915,23.028-18.036,42.278-27.93,62.84c-19.314,40.138-43.528,76.914-67.828,113.712
			C1347.43,1189.398,1279.494,1301.181,1249.738,1454.347z"/>
		<path d="M1250.125,1539.361l-16.644-81.703c-17.966-88.198-49.403-170.179-98.937-257.995
			c-20.509-36.36-43.629-71.763-65.987-105.998c-12.847-19.671-26.13-40.012-38.875-60.453
			c-7.467-11.979-14.325-24.42-20.956-36.452c-3.973-7.208-8.082-14.661-12.251-21.885c-13.489-23.37-23.309-45.336-30.02-67.154
			c-8.379-27.239-12.173-54.588-11.6-83.608c1.078-54.479,15.876-104.516,43.983-148.72c21.768-34.234,49.568-63,82.627-85.5
			c36.17-24.618,77.02-40.494,121.414-47.188c14.725-2.22,29.786-3.345,44.765-3.345c53.694,0,108.07,14.503,153.109,40.839
			c39.576,23.143,72.503,54.99,97.869,94.658c28.628,44.77,43.186,93.242,44.503,148.187c0.667,27.945-3.367,57.326-11.67,84.968
			c-5.698,18.981-13.912,35.318-21.857,51.117c-2.33,4.632-4.738,9.423-7.01,14.145c-19.996,41.552-44.874,79.226-68.935,115.661
			c-71.695,108.566-138.465,218.449-167.63,368.575L1250.125,1539.361z M1247.646,572.543c-13.329,0-26.726,1.001-39.818,2.975
			c-75.717,11.416-139.992,53.208-180.987,117.68c-25.145,39.545-37.839,82.583-38.809,131.572
			c-1.169,59.219,19.256,102.46,37.182,133.517c4.333,7.508,8.522,15.106,12.573,22.456c6.715,12.184,13.059,23.692,20.054,34.915
			c12.559,20.145,25.746,40.336,38.499,59.864c22.648,34.679,46.068,70.539,67.107,107.839
			c38.59,68.416,66.593,133.509,86.048,200.607c34.888-122.601,93.863-218.509,156.471-313.316
			c23.453-35.513,47.702-72.235,66.725-111.764c2.396-4.982,4.871-9.903,7.265-14.663c7.64-15.195,14.856-29.548,19.723-45.754
			c7.309-24.334,10.862-50.141,10.275-74.63c-1.182-49.383-13.665-91.043-39.284-131.105c-22.508-35.2-51.666-63.424-86.662-83.89
			C1343.97,585.436,1295.543,572.543,1247.646,572.543z"/>
	</g>
	<circle cx="1249" cy="823.795" r="97.26"/>
</g>
</svg>
