<?xml version="1.0" encoding="utf-8"?>
<!-- Generator: Adobe Illustrator 16.0.0, SVG Export Plug-In . SVG Version: 6.00 Build 0)  -->
<!DOCTYPE svg PUBLIC "-//W3C//DTD SVG 1.1//EN" "http://www.w3.org/Graphics/SVG/1.1/DTD/svg11.dtd">
<svg version="1.1" id="Layer_1" xmlns="http://www.w3.org/2000/svg" xmlns:xlink="http://www.w3.org/1999/xlink" x="0px" y="0px"
	 width="2759.055px" height="2758.839px" viewBox="0 0 2759.055 2758.839" enable-background="new 0 0 2759.055 2758.839"
	 xml:space="preserve">
<g id="SvMFQY.tif">
	<g>
		<path fill="#21A537" d="M17.383,1380.601c0-383.92,0-767.841,0-1151.763c-5.837-98.252,79.808-188.875,163.423-207.35
			c10.729-2.371,21.493-4.255,32.533-4.127c5.062,0.06,10.125-0.028,15.188-0.028c768.686-0.001,1537.374-0.001,2306.06-0.001
			c94.777-5.952,184.268,74.932,205.779,158.835c3.791,14.789,5.619,29.83,5.801,45.028c0.268,22.357,0.074,44.72,0.074,67.081
			c0,747.169-0.477,1494.341,0.547,2241.509c0.145,104.26-81.268,187.01-156.504,207.227c-16.404,4.408-33.059,6.59-49.982,6.6
			c-113.488,0.059-226.979,0.031-340.467,0.031c-657.307,0-1314.615-0.521-1971.92,0.533
			c-104.414,0.166-196.808-88.283-209.42-181.486c-1.351-9.975-1.069-20.207-1.07-30.32
			C17.375,2148.445,17.383,1764.525,17.383,1380.601z M2046.719,300.833c-5.289,0-9.453,0-13.613,0
			c-188.996,0-377.992,0.152-566.986-0.094c-55.846-0.071-111.159,4.626-165.866,15.743
			c-83.571,16.98-161.702,47.206-231.681,96.754c-72.087,51.043-127.5,116.171-164.854,196.379
			c-25.512,54.783-40.572,112.308-46.137,172.531c-5.854,63.33-1.42,125.55,18.377,186.17
			c40.417,123.761,118.038,215.481,236.384,271.297c62.398,29.427,128.806,41.749,197.422,43.08
			c25.725,0.5,51.466,0.048,77.199,0.186c4.055,0.022,8.373-1.189,12.232,1.425c0.736,4.507-1.795,8.18-2.914,12.153
			c-3.311,11.758-7.393,23.328-10.123,35.213c-15.344,66.804-5.52,128.916,35.264,185.099
			c10.174,14.016,21.307,27.225,32.764,40.189c2.385,2.699,6.088,4.773,5.729,10.107c-5.271,0.65-10.613,1.604-15.996,1.932
			c-41.668,2.537-83.102,7.197-124.471,12.719c-76.607,10.223-152.041,25.812-225.68,49.355
			c-76.336,24.404-148.711,57.209-213.786,104.68c-66.908,48.809-118.532,109.967-149.039,187.617
			c-29.862,76-34.621,153.324-8.819,231.4c23.069,69.807,66.285,125.527,123.219,171.053
			c50.311,40.229,107.084,68.516,167.789,89.281c85.735,29.33,174.421,41.766,264.545,44.67c70.483,2.273,140.75-1.26,210.62-11.697
			c67.357-10.062,133.109-26.221,196.545-51.092c99.281-38.922,187.387-94.508,257.207-176.307
			c66.176-77.527,106.551-166.189,114.09-268.836c3.877-52.777-1.57-104.383-17.127-154.881
			c-19.691-63.922-56.355-117.492-102.24-165.211c-41.303-42.951-86.453-81.633-133.146-118.551
			c-34.072-26.941-69.219-52.521-102.52-80.443c-15.6-13.08-29.83-27.492-40.213-45.15c-23.287-39.612-21.906-80.468-4.375-121.424
			c14.295-33.391,38.16-59.286,66.668-81.288c42.439-32.757,83.875-66.688,120.488-106.069
			c30.34-32.636,56.203-68.398,75.324-108.79c35.449-74.883,45.391-153.999,37.139-235.606
			c-7.729-76.398-35.932-145.192-81.158-207.125c-25.998-35.601-56.477-67.042-89.01-96.618c-3.156-2.868-7.561-5.071-8.277-10.205
			c5.166-1.676,9.818-0.943,14.391-0.951c42.186-0.065,84.373-0.2,126.559,0.103c8.127,0.059,14.145-1.989,20.043-7.994
			c33.412-34.001,67.279-67.552,100.943-101.302C2041.942,308.011,2044.87,306.135,2046.719,300.833z"/>
		<path fill="#FDFEFE" d="M2046.719,300.833c-1.85,5.301-4.777,7.178-7.096,9.501c-33.664,33.75-67.533,67.301-100.943,101.302
			c-5.898,6.004-11.916,8.053-20.045,7.994c-42.184-0.303-84.371-0.168-126.557-0.103c-4.572,0.008-9.225-0.725-14.391,0.95
			c0.719,5.135,5.119,7.338,8.275,10.206c32.535,29.575,63.014,61.018,89.012,96.618c45.229,61.934,73.432,130.727,81.156,207.125
			c8.254,81.607-1.688,160.724-37.137,235.606c-19.121,40.392-44.984,76.154-75.324,108.79
			c-36.615,39.382-78.049,73.312-120.488,106.069c-28.508,22.001-52.375,47.897-66.668,81.288
			c-17.531,40.957-18.912,81.812,4.375,121.424c10.381,17.658,24.613,32.07,40.211,45.15
			c33.303,27.922,68.447,53.502,102.521,80.443c46.693,36.918,91.844,75.6,133.146,118.551
			c45.887,47.719,82.549,101.289,102.238,165.211c15.559,50.498,21.004,102.104,17.127,154.881
			c-7.537,102.646-47.914,191.309-114.088,268.836c-69.822,81.799-157.926,137.385-257.207,176.307
			c-63.436,24.871-129.188,41.029-196.545,51.092c-69.869,10.438-140.136,13.971-210.62,11.697
			c-90.125-2.904-178.811-15.34-264.545-44.67c-60.705-20.768-117.479-49.055-167.789-89.281
			c-56.934-45.523-100.149-101.246-123.219-171.053c-25.801-78.076-21.042-155.4,8.819-231.4
			c30.507-77.65,82.131-138.809,149.039-187.617c65.075-47.471,137.45-80.273,213.786-104.68
			c73.639-23.543,149.072-39.135,225.68-49.355c41.37-5.521,82.803-10.182,124.471-12.719c5.383-0.328,10.727-1.279,15.996-1.932
			c0.359-5.334-3.344-7.408-5.729-10.107c-11.457-12.965-22.59-26.174-32.764-40.189c-40.783-56.184-50.608-118.295-35.264-185.099
			c2.73-11.885,6.812-23.455,10.123-35.213c1.119-3.974,3.65-7.646,2.914-12.153c-3.859-2.614-8.178-1.402-12.232-1.425
			c-25.733-0.137-51.475,0.314-77.199-0.186c-68.616-1.331-135.023-13.653-197.422-43.08
			c-118.346-55.814-195.968-147.536-236.384-271.297c-19.797-60.62-24.23-122.84-18.377-186.17
			c5.563-60.224,20.625-117.748,46.137-172.531c37.354-80.208,92.768-145.336,164.854-196.379
			c69.979-49.548,148.109-79.773,231.681-96.754c54.707-11.116,110.02-15.814,165.866-15.743
			c188.994,0.247,377.99,0.094,566.986,0.094C2037.266,300.833,2041.43,300.833,2046.719,300.833z M1518.954,1653.439
			c-39.297,0.207-79.229,2.691-119.119,6.576c-48.714,4.744-96.982,12.109-144.571,23.498
			c-64.97,15.549-126.184,40.035-180.335,79.844c-88.595,65.129-126.457,153.258-114.893,262.062
			c6.97,65.594,35.942,121.549,81.604,168.799c40.827,42.244,89.929,72.135,144.075,94.029
			c60.637,24.52,123.862,37.85,188.89,43.891c65.819,6.117,131.35,5.623,196.559-5.85c59.098-10.398,115.41-28.9,165.732-62.271
			c91.684-60.805,140.611-144.443,133.854-256.744c-2.188-36.316-12.398-70.414-30.205-102.178
			c-18.758-33.457-43.635-62.053-71.387-88.158c-62.244-58.551-132.139-107.367-201.158-157.287
			c-3.553-2.568-7.215-3.963-11.633-4.145C1544.151,1655.001,1531.95,1654.181,1518.954,1653.439z M1101.092,692.646
			c0.079,44.571,3.696,82.117,15.39,136.651c17.04,79.471,45.944,154.224,92.204,221.572
			c32.906,47.909,72.862,88.459,124.539,116.368c40.955,22.118,84.879,32.627,131.243,31.888
			c24.914-0.397,49.445-4.907,73.412-12.026c55.715-16.55,103.07-45.734,138.617-92.414
			c37.461-49.188,52.295-106.082,54.768-166.691c2.744-67.245-8.551-132.75-27.734-196.917
			c-25.766-86.19-64.021-166.003-124.736-233.466c-51.812-57.569-114.055-97.041-192.713-106.243
			c-47.052-5.504-92.628,0.151-135.871,19.979c-64.313,29.493-105.187,80.077-128.438,145.764
			C1106.267,600.899,1100.532,646.329,1101.092,692.646z"/>
		<path fill="#21A537" d="M1518.954,1653.439c12.996,0.74,25.197,1.562,37.414,2.064c4.418,0.182,8.08,1.576,11.633,4.145
			c69.02,49.92,138.914,98.736,201.158,157.287c27.752,26.105,52.629,54.703,71.387,88.158
			c17.807,31.764,28.02,65.861,30.205,102.178c6.758,112.301-42.17,195.941-133.855,256.744
			c-50.32,33.373-106.635,51.873-165.73,62.271c-65.209,11.473-130.74,11.967-196.56,5.852
			c-65.026-6.043-128.252-19.373-188.889-43.893c-54.146-21.895-103.248-51.783-144.075-94.029
			c-45.663-47.248-74.635-103.203-81.604-168.799c-11.564-108.803,26.298-196.934,114.893-262.062
			c54.151-39.809,115.366-64.293,180.335-79.842c47.589-11.391,95.856-18.754,144.571-23.498
			C1439.727,1656.13,1479.657,1653.646,1518.954,1653.439z"/>
		<path fill="#21A537" d="M1101.09,692.645c-0.559-46.314,5.177-91.744,20.678-135.533
			c23.254-65.688,64.126-116.271,128.439-145.764c43.241-19.829,88.818-25.483,135.872-19.979
			c78.658,9.202,140.9,48.674,192.711,106.243c60.717,67.463,98.973,147.275,124.738,233.466
			c19.184,64.167,30.479,129.672,27.732,196.917c-2.473,60.608-17.307,117.503-54.766,166.692
			c-35.549,46.678-82.902,75.862-138.617,92.414c-23.967,7.118-48.498,11.627-73.412,12.025
			c-46.365,0.739-90.289-9.77-131.244-31.888c-51.677-27.909-91.633-68.459-124.539-116.368
			c-46.259-67.35-75.165-142.102-92.205-221.572C1104.788,774.764,1101.171,737.218,1101.09,692.645z"/>
	</g>
</g>
</svg>
