<?xml version="1.0" encoding="UTF-8" standalone="no"?>
<!-- Generator: Adobe Illustrator 16.0.0, SVG Export Plug-In . SVG Version: 6.00 Build 0)  -->

<svg
   xmlns:dc="http://purl.org/dc/elements/1.1/"
   xmlns:cc="http://creativecommons.org/ns#"
   xmlns:rdf="http://www.w3.org/1999/02/22-rdf-syntax-ns#"
   xmlns:svg="http://www.w3.org/2000/svg"
   xmlns="http://www.w3.org/2000/svg"
   xmlns:sodipodi="http://sodipodi.sourceforge.net/DTD/sodipodi-0.dtd"
   xmlns:inkscape="http://www.inkscape.org/namespaces/inkscape"
   version="1.1"
   id="Layer_1"
   x="0px"
   y="0px"
   width="980.951px"
   height="982.452px"
   viewBox="0 0 980.951 982.452"
   enable-background="new 0 0 980.951 982.452"
   xml:space="preserve"
   inkscape:version="0.91 r13725"
   sodipodi:docname="izitru.svg"><metadata
     id="metadata29"><rdf:RDF><cc:Work
         rdf:about=""><dc:format>image/svg+xml</dc:format><dc:type
           rdf:resource="http://purl.org/dc/dcmitype/StillImage" /></cc:Work></rdf:RDF></metadata><defs
     id="defs27" /><sodipodi:namedview
     pagecolor="#ffffff"
     bordercolor="#666666"
     borderopacity="1"
     objecttolerance="10"
     gridtolerance="10"
     guidetolerance="10"
     inkscape:pageopacity="0"
     inkscape:pageshadow="2"
     inkscape:window-width="1872"
     inkscape:window-height="2058"
     id="namedview25"
     showgrid="false"
     inkscape:zoom="0.67943145"
     inkscape:cx="3.8227195"
     inkscape:cy="340.71799"
     inkscape:window-x="24"
     inkscape:window-y="66"
     inkscape:window-maximized="0"
     inkscape:current-layer="Layer_1" /><g
     id="g5"><path
       fill="#F7A800"
       d="M887.631,310.891c-62.171-93.987-208.608-91.676-327.067,5.173   C442.106,412.92,396.482,567.647,458.65,661.628c62.173,93.987,208.61,91.676,327.063-5.171   C904.172,559.602,949.805,404.878,887.631,310.891"
       id="path7" /><path
       fill="#FCFCFD"
       d="M817.256,461.826c-17.346,26.429-44.05,54.144-80.103,83.118c29.188,10.85,43.787,30.668,43.787,59.459   c0,17.641-6.183,32.546-18.545,44.746c-12.366,12.203-27.479,18.303-45.331,18.303c-18.035,0-33.359-6.022-45.98-18.043   c-12.619-12.033-18.933-26.691-18.933-43.983c0-8.303,1.806-16.985,5.411-26.048c3.604-9.067,12.361-21.895,26.276-38.505   c14.936-17.452,24.293-31.267,28.071-41.437c3.771-10.159,5.664-19.978,5.664-29.476c0-20.505-6.18-37.066-18.545-49.692   c-12.359-12.616-28.846-18.932-49.456-18.932c-19.571,0-45.076,7.961-76.5,23.896c10.986-45.588,30.949-83.329,59.89-113.233   c28.938-29.911,61.944-44.863,99.039-44.863c31.424,0,57.826,10.626,79.202,31.902c21.378,21.253,32.068,47.561,32.068,78.913   C843.273,407.424,834.596,435.385,817.256,461.826"
       id="path9" /><path
       fill="#575756"
       d="M97.104,391.752c6.879,0,12.777,2.492,17.698,7.469c4.918,4.982,7.374,11.018,7.374,18.105   c0,6.994-2.43,12.958-7.3,17.891c-4.874,4.933-10.701,7.397-17.483,7.397c-6.973,0-12.919-2.516-17.839-7.542   c-4.921-5.031-7.377-11.136-7.377-18.322c0-6.896,2.435-12.787,7.305-17.672C84.354,394.189,90.233,391.752,97.104,391.752    M77.493,456.122h39.229v156.334H77.493V456.122z"
       id="path11" /><polygon
       fill="#575756"
       points="133.973,456.122 253.665,456.122 183.43,579.263 249.64,579.263 249.64,612.458 123.196,612.458    193.757,489.316 133.973,489.316  "
       id="polygon13" /><path
       fill="#575756"
       d="M281.075,391.752c6.881,0,12.777,2.492,17.698,7.469c4.922,4.982,7.379,11.018,7.379,18.105   c0,6.994-2.435,12.958-7.308,17.891c-4.871,4.933-10.694,7.397-17.476,7.397c-6.979,0-12.919-2.516-17.849-7.542   c-4.914-5.031-7.374-11.136-7.374-18.322c0-6.896,2.433-12.787,7.308-17.672C268.325,394.189,274.198,391.752,281.075,391.752    M261.463,456.122h39.23v156.334h-39.23V456.122z"
       id="path15" /><polygon
       fill="#575756"
       points="331.917,398.503 371.142,398.503 371.142,456.122 394.42,456.122 394.42,489.888 371.142,489.888    371.142,612.456 331.917,612.456 331.917,489.888 311.797,489.888 311.797,456.122 331.917,456.122  "
       id="polygon17" /><path
       fill="#575756"
       d="M407.006,456.122h33.624v19.686c3.639-7.758,8.478-13.651,14.511-17.672   c6.04-4.02,12.646-6.034,19.832-6.034c5.077,0,10.391,1.339,15.946,4.021v29.86c-9.144-3.106-13.984-3.265-19.047-2.433   c-5.312,0.861-9.791,3.816-15.495,10.352c-9.057,10.375-10.576,25.877-10.576,47.717l0.146,7.617v63.223h-38.94V456.122z"
       id="path19" /><path
       fill="#575756"
       d="M504.555,456.122h39.655v75.294c0,14.653,1.008,24.839,3.026,30.528c2.014,5.706,5.259,10.133,9.721,13.297   c4.468,3.161,9.969,4.744,16.492,4.744c6.537,0,12.081-1.559,16.645-4.671c4.561-3.111,7.943-7.688,10.149-13.728   c1.634-4.501,2.448-14.123,2.448-28.879v-76.586h39.229v66.242c0,27.303-2.15,45.975-6.469,56.038   c-5.271,12.261-13.024,21.675-23.271,28.235c-10.254,6.558-23.282,9.844-39.085,9.844c-17.149,0-31.021-3.834-41.603-11.496   c-10.584-7.663-18.034-18.344-22.34-32.045c-3.066-9.482-4.6-26.723-4.6-51.73V456.122z"
       id="path21" /></g><rect
     x="11.385"
     y="13.385"
     fill="none"
     width="960"
     height="960"
     id="rect23" /></svg>